<?xml version="1.0" encoding="UTF-8" standalone="no"?>
<!-- Created with Inkscape (http://www.inkscape.org/) -->

<svg
   xmlns:dc="http://purl.org/dc/elements/1.1/"
   xmlns:cc="http://creativecommons.org/ns#"
   xmlns:rdf="http://www.w3.org/1999/02/22-rdf-syntax-ns#"
   xmlns:svg="http://www.w3.org/2000/svg"
   xmlns="http://www.w3.org/2000/svg"
   xmlns:xlink="http://www.w3.org/1999/xlink"
   xmlns:sodipodi="http://sodipodi.sourceforge.net/DTD/sodipodi-0.dtd"
   xmlns:inkscape="http://www.inkscape.org/namespaces/inkscape"
   width="310.65594mm"
   height="64.768188mm"
   viewBox="0 0 1100.7494 229.49358"
   id="svg4482"
   version="1.1"
   inkscape:version="0.91 r13725"
   sodipodi:docname="datalad_orbitron8.svg"
   inkscape:export-filename="/home/alex/git/psychoinformatics-www/datalad_orbitron8.png"
   inkscape:export-xdpi="62.795521"
   inkscape:export-ydpi="62.795521">
  <defs
     id="defs4484" />
  <sodipodi:namedview
     id="base"
     pagecolor="#ffffff"
     bordercolor="#666666"
     borderopacity="1.0"
     inkscape:pageopacity="0.0"
     inkscape:pageshadow="2"
     inkscape:zoom="0.62775414"
     inkscape:cx="550.37471"
     inkscape:cy="114.74679"
     inkscape:document-units="px"
     inkscape:current-layer="layer1"
     showgrid="false"
     inkscape:window-width="1196"
     inkscape:window-height="1120"
     inkscape:window-x="1920"
     inkscape:window-y="779"
     inkscape:window-maximized="0"
     fit-margin-top="0"
     fit-margin-left="0"
     fit-margin-right="0"
     fit-margin-bottom="0">
    <inkscape:grid
       type="xygrid"
       id="grid4228" />
  </sodipodi:namedview>
  <metadata
     id="metadata4487">
    <rdf:RDF>
      <cc:Work
         rdf:about="">
        <dc:format>image/svg+xml</dc:format>
        <dc:type
           rdf:resource="http://purl.org/dc/dcmitype/StillImage" />
        <dc:title />
      </cc:Work>
    </rdf:RDF>
  </metadata>
  <g
     inkscape:label="Layer 1"
     inkscape:groupmode="layer"
     id="layer1"
     transform="translate(-45.195424,-753.21486)">
    <flowRoot
       xml:space="preserve"
       id="flowRoot5891"
       style="font-style:normal;font-variant:normal;font-weight:normal;font-stretch:normal;font-size:312.5px;line-height:125%;font-family:Baumans;-inkscape-font-specification:Baumans;text-align:start;letter-spacing:0px;word-spacing:0px;writing-mode:lr-tb;text-anchor:start;fill:#000000;fill-opacity:1;stroke:none;stroke-width:1px;stroke-linecap:butt;stroke-linejoin:miter;stroke-opacity:1"
       transform="translate(0,698.0315)"><flowRegion
         id="flowRegion5893"><rect
           id="rect5895"
           width="905.71429"
           height="222.85715"
           x="314.28571"
           y="65.759293"
           style="font-style:normal;font-variant:normal;font-weight:normal;font-stretch:normal;font-size:312.5px;font-family:Baumans;-inkscape-font-specification:Baumans" /></flowRegion><flowPara
         id="flowPara5897"
         style="font-style:normal;font-variant:normal;font-weight:normal;font-stretch:normal;font-size:312.5px;font-family:Baumans;-inkscape-font-specification:Baumans">atala</flowPara></flowRoot>    <g
       transform="translate(-12,654.0315)"
       style="font-style:normal;font-variant:normal;font-weight:normal;font-stretch:normal;font-size:287.5px;line-height:125%;font-family:Baumans;-inkscape-font-specification:Baumans;text-align:start;letter-spacing:0px;word-spacing:0px;writing-mode:lr-tb;text-anchor:start;fill:#d70a53;fill-opacity:1;stroke:#000000;stroke-width:3;stroke-linecap:butt;stroke-linejoin:miter;stroke-miterlimit:4;stroke-dasharray:none;stroke-opacity:1"
       id="flowRoot5899" />
    <g
       transform="translate(6.6109714,820.69014)"
       style="font-style:normal;font-variant:normal;font-weight:bold;font-stretch:normal;font-size:187.5px;line-height:125%;font-family:Arial;-inkscape-font-specification:'Arial, Bold';text-align:start;letter-spacing:0px;word-spacing:0px;writing-mode:lr-tb;text-anchor:start;fill:#d70a53;fill-opacity:1;stroke:#2f2f2f;stroke-width:4;stroke-linecap:butt;stroke-linejoin:miter;stroke-miterlimit:4;stroke-dasharray:none;stroke-opacity:1"
       id="flowRoot4223">
      <path
         style="font-style:normal;font-variant:normal;font-weight:500;font-stretch:normal;font-size:231.25px;font-family:Orbitron;-inkscape-font-specification:'Orbitron Medium';letter-spacing:-5px;fill:#d70a53;fill-opacity:1;stroke:#2f2f2f;stroke-width:4;stroke-miterlimit:4;stroke-dasharray:none;stroke-opacity:1"
         d="m 294.69727,108.55859 0,24.97461 106.375,0 c 1.3875,0 2.54375,0.53998 3.46875,1.61914 1.07916,0.925 1.61914,2.08125 1.61914,3.46875 l 0,24.51172 -111.46289,0 0,49.48828 c 0,8.325 2.92877,15.41706 8.78711,21.27539 5.85833,5.85834 12.95039,8.78711 21.27539,8.78711 l 59.76955,0 0,-24.97461 -59.76955,0 c -1.3875,0 -2.62006,-0.46367 -3.69922,-1.38867 -0.925,-1.07916 -1.38867,-2.31172 -1.38867,-3.69922 l 0,-24.51171 86.48828,0 0,13.15234 0.0937,0 0,29.4909 24.88086,0 0,-92.13153 c 0,-8.325 -2.92878,-15.41705 -8.78711,-21.27539 -5.85834,-5.85833 -12.95039,-8.78711 -21.27539,-8.78711 z"
         transform="translate(-5.420312,-110.38081)"
         id="path5229"
         inkscape:connector-curvature="0"
         sodipodi:nodetypes="ccscsccsssccscsccccccsssc" />
      <path
         d="m 500.84277,23.152734 -29.02021,0 0,79.087496 c 0,1.3875 0.4625,2.62083 1.3875,3.7 1.07917,0.925 2.3125,1.3875 3.7,1.3875 l 23.93271,0 0,24.975 -23.93271,0 c -8.325,0 -15.41667,-2.92917 -21.275,-8.7875 -5.85833,-5.85833 -8.7875,-12.95 -8.7875,-21.275 l 0,-73.999996 0,-74 24.975,0 0,43.9375004 29.02021,0 z"
         style="font-style:normal;font-variant:normal;font-weight:500;font-stretch:normal;font-size:231.25px;font-family:Orbitron;-inkscape-font-specification:'Orbitron Medium';letter-spacing:-5px;fill:#d70a53;fill-opacity:1;stroke:#2f2f2f;stroke-width:4;stroke-miterlimit:4;stroke-dasharray:none;stroke-opacity:1"
         id="path5231"
         inkscape:connector-curvature="0"
         sodipodi:nodetypes="ccscsccssscccccc" />
      <path
         d="m 683.2877,28.240234 0,-74 24.975,0 0,147.999996 q 0,2.08125 1.3875,3.7 1.61875,1.3875 3.7,1.3875 l 24.975,0 0,24.975 -24.975,0 q -12.4875,0 -21.275,-8.7875 -8.7875,-8.7875 -8.7875,-21.275 l 0,-73.999996 z"
         style="font-style:normal;font-variant:normal;font-weight:500;font-stretch:normal;font-size:231.25px;font-family:Orbitron;-inkscape-font-specification:'Orbitron Medium';letter-spacing:-5px;fill:#d70a53;fill-opacity:1;stroke:#2f2f2f;stroke-width:4;stroke-miterlimit:4;stroke-dasharray:none;stroke-opacity:1"
         id="path5235"
         inkscape:connector-curvature="0" />
      <use
         x="0"
         y="0"
         xlink:href="#path5229"
         id="use7255"
         transform="translate(235.14981,0)"
         width="100%"
         height="100%"
         style="stroke:#2f2f2f;stroke-opacity:1" />
      <use
         x="0"
         y="0"
         xlink:href="#path5229"
         id="use7257"
         transform="translate(462.92695,-0.05420269)"
         width="100%"
         height="100%"
         style="stroke:#2f2f2f;stroke-opacity:1" />
    </g>
    <path
       style="color:#000000;font-style:normal;font-variant:normal;font-weight:normal;font-stretch:normal;font-size:medium;line-height:normal;font-family:Sans;-inkscape-font-specification:Sans;text-indent:0;text-align:start;text-decoration:none;text-decoration-line:none;letter-spacing:normal;word-spacing:normal;text-transform:none;direction:ltr;block-progression:tb;writing-mode:lr-tb;baseline-shift:baseline;text-anchor:start;display:inline;overflow:visible;visibility:visible;fill:#d70a53;fill-opacity:1;stroke:#2f2f2f;stroke-width:4;stroke-miterlimit:4;stroke-dasharray:none;stroke-opacity:1;marker:none;enable-background:accumulate"
       d="m 87.195434,755.68143 0,12.5 0,160 0,12.5 12.499997,0 119.999999,0 0,-25 -107.5,0 0,-135 87.49999,0 c 8.14923,0 15.45751,0.21294 21.59371,1.75 6.0677,1.51987 11.64831,4.52323 15.65631,8.53125 4.008,4.00801 7.0114,9.55734 8.5312,15.625 1.5371,6.13626 1.7188,13.44452 1.7188,21.59375 l 0,80 c 0,8.14923 -0.1817,15.45747 -1.7188,21.59375 -1.5198,6.06766 -4.5232,11.64824 -8.5312,15.65625 -4.008,4.00801 -9.58861,6.98013 -15.65631,8.5 -6.1362,1.53706 -13.44448,1.75 -21.59371,1.75 l -127.499996,0 0,-175.03125 -25,0 0,187.53125 0,12.50004 12.5,0 139.999996,0 c 8.37576,0 17.79401,-0.022 27.68751,-2.50004 9.96211,-2.49537 19.57311,-7.41682 27.25001,-15.09375 7.6769,-7.67693 12.5984,-17.2879 15.0937,-27.25 2.4782,-9.8935 2.4688,-19.28048 2.4688,-27.65625 l 0,-80 c 0,-8.37577 0.01,-17.76275 -2.4688,-27.65625 -2.4919,-9.94846 -7.4036,-19.54705 -15.0625,-27.21875 l -0.031,-0.0312 c -7.6769,-7.67693 -17.2879,-12.59838 -27.25001,-15.09375 -9.8935,-2.4782 -19.3117,-2.5 -27.68746,-2.5 l -99.999989,0 -12.499997,0 z"
       id="path4116"
       inkscape:connector-curvature="0"
       inkscape:export-filename="/tmp/xyz5.png"
       inkscape:export-xdpi="100"
       inkscape:export-ydpi="100" />
    <use
       x="0"
       y="0"
       xlink:href="#path4116"
       id="use5057"
       transform="matrix(-1,0,0,1,1191.1403,4.5107338e-6)"
       width="100%"
       height="100%" />
  </g>
</svg>
